<svg xmlns="http://www.w3.org/2000/svg" width="3253" height="567" viewBox="0 0 3253 567">
    <g fill="none" fill-rule="evenodd">
        <g>
            <g>
                <g>
                    <path fill="#999" d="M2450.067 75.273l-21.31 56.184h-.365l-21.666-56.184h-17.336v76.056h9.39V83.222h.357l26.19 68.107h6.14l26.18-68.107h.366v68.107h9.39V75.273h-17.336zm-132.55 0V82.5h24.199v68.83h9.39v-68.83h24.194v-7.226h-57.783z" transform="translate(-179 -249) translate(179 249) translate(785 15)"/>
                    <path fill="#000" d="M1268.813 0v108.624c0 12.394 1.525 29.286 4.58 50.668h-3.23c-20.477-28.93-50.299-43.392-89.456-43.392-37.356 0-66.59 13.61-87.699 40.828-21.103 27.229-31.653 65.271-31.653 114.148 0 48.702 10.414 86.519 31.252 113.477 20.832 26.952 49.846 40.426 87.027 40.426 39.157 0 68.883-14.819 89.179-44.471h2.964l11.051 39.082h49.571V0h-63.586zm-124.745 347.56c-11.677-17.339-17.511-42.54-17.511-75.605 0-33.42 6.014-59.159 18.048-77.22 12.034-18.055 29.19-27.088 51.462-27.088 26.04 0 45.171 7.91 57.391 23.721 12.215 15.808 18.32 42.494 18.32 80.05v8.893c-.367 32.884-6.466 56.65-18.32 71.293-11.853 14.643-30.81 21.965-56.854 21.965-23.346 0-40.858-8.667-52.536-26.01zm-812.79 71.83h63.316V0H331.28v419.39zM87.569 44.205c-28.381 16.35-50.066 39.89-65.065 70.611C7.504 145.547 0 181.392 0 222.361c0 65.045 15.45 115.046 46.345 149.993 30.895 34.952 75.174 52.425 132.83 52.425 39.153 0 74.186-5.836 105.076-17.518v-55.25c-16.884 5.203-33.142 9.474-48.768 12.796-15.625 3.332-31.788 4.993-48.492 4.993-38.625 0-68.126-12.405-88.512-37.2C78.1 307.8 67.9 271.238 67.9 222.903c0-46.183 10.6-82.389 31.793-108.624 21.194-26.235 50.293-39.348 87.298-39.348 16.343 0 31.924 2.38 46.742 7.141 14.818 4.763 28.873 10.288 42.166 16.575l23.17-53.634c-34.125-16.891-71.31-25.337-111.541-25.337-38.26 0-71.582 8.175-99.96 24.53zm1406.37-20.484L1346.56 419.39h67.9l38.525-109.427h150.613l39.333 109.427h68.436L1563.99 23.72h-70.052zm13.473 128.024c9.34-26.235 16.434-50.403 21.284-72.503 1.801 7.186 5.072 18.507 9.832 33.958 4.76 15.456 8.493 26.777 11.181 33.963l36.91 107.274h-114.772l35.565-102.692zm594.121 9.434h-3.23c-4.49-21.021-7.45-34.32-8.89-39.89h-51.195V552h63.315V429.903c0-5.395-1.254-20.665-3.767-45.821h3.767c20.838 27.138 50.113 40.697 87.835 40.697 37.18 0 66.325-13.654 87.433-40.968 21.099-27.31 31.653-65.312 31.653-114.008 0-48.697-10.374-86.519-31.116-113.477-20.747-26.952-49.711-40.426-86.892-40.426-39.513 0-69.154 15.09-88.913 45.279zm17.246 187.454c-11.492-16.259-17.246-42.534-17.246-78.83v-9.435c0-32.342 5.799-55.887 17.381-70.62 11.583-14.729 29.953-22.1 55.099-22.1 22.809 0 40.1 8.58 51.863 25.743 11.768 17.157 17.647 42.448 17.647 75.87 0 33.24-5.924 58.848-17.782 76.818-11.859 17.97-28.738 26.953-50.654 26.953-26.04 0-44.816-8.13-56.308-24.399zM1788.844 161.18h-3.231c-4.495-21.021-7.45-34.32-8.889-39.89h-51.19V552h63.31V429.903c0-5.395-1.255-20.665-3.768-45.821h3.768c20.837 27.138 50.112 40.697 87.834 40.697 37.18 0 66.325-13.654 87.434-40.968 21.103-27.31 31.652-65.312 31.652-114.008 0-48.697-10.368-86.519-31.116-113.477-20.742-26.952-49.71-40.426-86.891-40.426-39.518 0-69.154 15.09-88.913 45.279zm17.245 187.454c-11.497-16.259-17.245-42.534-17.245-78.83v-9.435c0-32.342 5.798-55.887 17.38-70.62 11.588-14.729 29.953-22.1 55.1-22.1 22.808 0 40.1 8.58 51.863 25.743 11.763 17.157 17.647 42.448 17.647 75.87 0 33.24-5.93 58.848-17.783 76.818-11.853 17.97-28.733 26.953-50.654 26.953-26.04 0-44.81-8.13-56.308-24.399zM473.425 156.597c-24.786 27.134-37.176 64.865-37.176 113.206 0 31.082 5.739 58.396 17.241 81.936 11.492 23.536 27.93 41.596 49.3 54.177 21.38 12.58 45.984 18.863 73.824 18.863 44.55 0 79.302-13.654 104.273-40.968 24.966-27.31 37.446-65.312 37.446-114.008 0-47.081-12.565-84.502-37.717-112.262C655.47 129.78 621.344 115.9 578.23 115.9c-45.08 0-80.014 13.564-104.804 40.697zm28.02 113.206c0-32.885 5.975-58.131 17.919-75.74 11.943-17.609 31.206-26.416 57.792-26.416 50.649 0 75.976 34.054 75.976 102.156 0 68.814-25.146 103.229-75.44 103.229-50.834 0-76.247-34.415-76.247-103.23zm454.95-148.514v148.514c0 37.375-6.25 64.011-18.726 79.91-12.485 15.907-32.018 23.856-58.6 23.856-19.94 0-34.577-5.701-43.917-17.118-9.34-11.406-14.01-28.518-14.01-51.34V121.288h-63.857v194.872c0 36.477 8.889 63.695 26.676 81.665 17.783 17.97 44.725 26.953 80.827 26.953 20.838 0 39.383-3.954 55.636-11.858 16.257-7.904 28.783-18.778 37.586-32.613h3.236l8.894 39.082h49.841v-298.1h-63.586z" transform="translate(-179 -249) translate(179 249) translate(785 15)"/>
                </g>
                <g fill="#000">
                    <path d="M320.077 0c80.747 0 151.082 48.725 181.022 119.378l2.436.729C583.71 144.66 642 218.852 642 306.636c0 107.962-88.094 195.155-196.367 195.155h-239.08c-3.789.269-7.24.296-11.31-.003C87.487 501.188 0 414.224 0 306.636c0-86.949 57.224-160.674 136.384-185.88l2.406-.749.975-2.282C170.095 47.967 239.959 0 320.077 0zm0 33.842c-72.022 0-133.985 46.736-154.98 112.422l-.676 2.173-2.232.457c-73.46 15.59-128.4 80.37-128.4 157.742 0 88.29 71.427 159.869 159.892 161.292l2.801.005.989.085 1.556.096c2.03.088 3.923.027 6.206-.165h240.4c89.7 0 162.578-72.132 162.578-161.313 0-78.91-57.107-144.61-132.592-158.575-20.432-66.63-82.866-114.219-155.542-114.219zm0 33.842c-65.678 0-119.873 48.66-127.792 111.543-69.239 2.134-124.706 58.36-124.706 127.409 0 69.696 56.513 126.328 126.658 127.454l3.07.024 1.357.048c1.795.105 1.617.291 5.002-.055h241.967l2.13-.017c70.145-1.126 126.658-57.758 126.658-127.454 0-69.664-56.459-126.275-126.558-127.453-7.939-62.861-62.124-111.499-127.786-111.499z" transform="translate(-179 -249) translate(179 249)"/>
                </g>
            </g>
        </g>
    </g>
</svg>
